<?xml version="1.0" encoding="UTF-8"?>
<svg id="Layer_1" xmlns="http://www.w3.org/2000/svg" xmlns:xlink="http://www.w3.org/1999/xlink" version="1.1" viewBox="0 0 512 512">
  <!-- Generator: Adobe Illustrator 30.3.0, SVG Export Plug-In . SVG Version: 2.1.3 Build 182)  -->
  <defs>
    <style>
      .st0 {
        fill: url(#linear-gradient2);
      }

      .st1 {
        fill: url(#linear-gradient1);
      }

      .st2 {
        fill: url(#linear-gradient);
      }
    </style>
    <linearGradient id="linear-gradient" x1="399.77" y1="335.39" x2="278.19" y2="265.2" gradientUnits="userSpaceOnUse">
      <stop offset="0" stop-color="#fff"/>
      <stop offset="1" stop-color="#acacac"/>
    </linearGradient>
    <linearGradient id="linear-gradient1" x1="138.57" y1="154.15" x2="372.34" y2="154.35" xlink:href="#linear-gradient"/>
    <linearGradient id="linear-gradient2" x1="173.55" y1="195.27" x2="173.02" y2="402.94" xlink:href="#linear-gradient"/>
  </defs>
  <rect width="512" height="512" rx="43.75" ry="43.75"/>
  <path class="st2" d="M398.74,190.93c.88-.31.94-.57,1.27-.6.47-.03.7.23,1.28.83l-.16,148.77-124.31,69.86-.3-150.22,122.21-68.64Z"/>
  <polygon class="st1" points="380.13 154.23 255.95 223.91 131.82 154.25 255.88 84.59 380.13 154.23"/>
  <path class="st0" d="M235.53,395.75l.1,7.53c.03,1.94.7,4.39-.88,6.42l-124.02-69.78v-148.95c0-.87.97-.96,1.21-.8.4.26,1.02.56,1.65.92l121.81,68.41.03,128.75c0,2.57.89,4.84.1,7.5Z"/>
</svg>