<?xml version="1.0" encoding="UTF-8"?>
<svg id="Layer_1" xmlns="http://www.w3.org/2000/svg" version="1.1" viewBox="0 0 512 512">
  <!-- Generator: Adobe Illustrator 30.3.0, SVG Export Plug-In . SVG Version: 2.1.3 Build 182)  -->
  <defs>
    <style>
      .st0 {
        fill: #fff;
        stroke: #fff;
        stroke-miterlimit: 10;
        stroke-width: 7px;
      }
    </style>
  </defs>
  <rect width="512" height="512" rx="43.75" ry="43.75"/>
  <path class="st0" d="M233.63,198.51c-12.41,0-24.01,3.27-34.79,9.8-7.03,4.26-13.48,10.07-19.36,17.39-2.52-6.5-6.24-12.08-11.18-16.73-7.41-6.97-17.43-10.45-30.05-10.45-11.33,0-21.18,2.73-29.56,8.17-7.19,4.67-13.78,10.71-19.76,18.1v-23.65H28.81v155.49h61.41v-103.23c3.05-4.13,6.31-7.46,9.8-9.96,3.48-2.5,7.19-3.76,11.11-3.76s6.75,1.42,8.49,4.25,2.61,7.08,2.61,12.74v99.96h61.41v-103.23c3.05-4.13,6.31-7.46,9.8-9.96,3.48-2.5,7.19-3.76,11.11-3.76s6.75,1.42,8.49,4.25,2.61,7.08,2.61,12.74v99.96h61.41v-104.53c0-16.99-3.71-30.16-11.11-39.53-7.41-9.36-18.19-14.05-32.34-14.05h.02Z"/>
  <path class="st0" d="M491.36,356.61l-48.07-92.94c7.67-3.36,14.34-7.65,19.98-12.9,12.41-11.54,18.62-28.2,18.62-49.98s-8.33-39.09-24.99-49.98-38.71-16.33-66.15-16.33h-91.79v222.13h63.7v-80.36h22.02l36.78,80.36h69.91-.01ZM362.66,176.95h24.5c10.23,0,18.07,2.51,23.52,7.51,5.44,5.01,8.17,12.09,8.17,21.23s-2.73,16.23-8.17,21.23c-5.45,5.01-13.29,7.51-23.52,7.51h-24.5v-57.49h0Z"/>
</svg>