<?xml version="1.0" encoding="UTF-8"?>
<svg id="Layer_1" xmlns="http://www.w3.org/2000/svg" version="1.1" viewBox="0 0 512 512">
  <!-- Generator: Adobe Illustrator 30.3.0, SVG Export Plug-In . SVG Version: 2.1.3 Build 182)  -->
  <path d="M459.24,175.89c1.26-.44,1.33-.82,1.81-.85.67-.04,1,.32,1.82,1.18l-.22,211.84-177,99.48-.43-213.9,174.02-97.74Z"/>
  <polygon points="432.75 123.63 255.93 222.86 79.17 123.66 255.82 24.47 432.75 123.63"/>
  <path d="M226.85,467.53l.15,10.73c.04,2.76,1,6.25-1.26,9.15l-176.59-99.36v-212.09c0-1.24,1.38-1.37,1.73-1.14.57.37,1.45.8,2.35,1.3l173.44,97.4.04,183.33c0,3.66,1.27,6.89.14,10.68Z"/>
</svg>