<?xml version="1.0" encoding="UTF-8"?>
<svg id="Layer_1" xmlns="http://www.w3.org/2000/svg" xmlns:xlink="http://www.w3.org/1999/xlink" version="1.1" viewBox="0 0 24 24">
  <!-- Generator: Adobe Illustrator 30.2.1, SVG Export Plug-In . SVG Version: 2.1.1 Build 1)  -->
  <defs>
    <style>
      .st0 {
        fill: none;
        stroke: url(#linear-gradient1);
        stroke-miterlimit: 10;
        stroke-width: .2px;
      }

      .st1 {
        fill: url(#linear-gradient);
      }
    </style>
    <linearGradient id="linear-gradient" x1="1.46" y1="12" x2="22.54" y2="12" gradientUnits="userSpaceOnUse">
      <stop offset="0" stop-color="#fff"/>
      <stop offset="1" stop-color="#ababab"/>
    </linearGradient>
    <linearGradient id="linear-gradient1" x1="1.36" y1="12" x2="22.64" y2="12" gradientUnits="userSpaceOnUse">
      <stop offset="0" stop-color="#b8b8b8"/>
      <stop offset="1" stop-color="#000"/>
    </linearGradient>
  </defs>
  <path class="st1" d="M19.8,15.02c-1.19,0-2.19.76-2.57,1.82h-.9c-.13-.8-.47-1.55-.98-2.17l1.91-1.99c1.03.46,2.27.26,3.09-.59,1.05-1.09,1.01-2.83-.08-3.87-1.09-1.05-2.83-1.01-3.87.08-.82.86-.97,2.11-.47,3.12l-2.03,2.12c-.24-.12-.5-.23-.77-.31-.09-.03-.19-.03-.28-.05v-6c1.02-.4,1.75-1.39,1.75-2.55,0-1.51-1.23-2.74-2.74-2.74s-2.74,1.23-2.74,2.74c0,1.17.74,2.17,1.78,2.56v5.99c-.44.1-.86.24-1.25.45l-1.85-2.32c.59-.96.56-2.22-.18-3.15-.94-1.18-2.67-1.38-3.85-.43-1.18.94-1.38,2.67-.43,3.85.74.93,1.96,1.24,3.03.87l1.9,2.38c-.34.44-.61.93-.77,1.49-.03.12-.04.24-.07.35h-.66c-.38-1.06-1.38-1.82-2.57-1.82-1.51,0-2.74,1.23-2.74,2.74s1.23,2.74,2.74,2.74c1.19,0,2.19-.76,2.57-1.82h.65c.33,1.59,1.49,2.96,3.16,3.45,2.41.7,4.94-.68,5.64-3.09.02-.06.02-.12.03-.18h.97c.38,1.06,1.38,1.82,2.57,1.82,1.51,0,2.74-1.23,2.74-2.74s-1.23-2.74-2.74-2.74ZM17.73,9.57c.34-.35.9-.37,1.26-.03.35.34.37.9.03,1.26-.34.35-.9.37-1.26.03-.35-.34-.37-.9-.03-1.26ZM4.2,18.47c-.49,0-.89-.4-.89-.89s.4-.89.89-.89.89.4.89.89-.4.89-.89.89ZM11.86,3.62c.55,0,.99.44.99.99s-.44.99-.99.99-.99-.44-.99-.99.44-.99.99-.99ZM4.78,10.4c-.31-.38-.24-.95.14-1.25.38-.31.95-.24,1.25.14s.24.95-.14,1.25c-.38.31-.95.24-1.25-.14ZM14.17,18.25c-.37,1.27-1.71,2.01-2.98,1.64-1.27-.37-2.01-1.71-1.64-2.98.37-1.27,1.71-2.01,2.98-1.64,1.27.37,2.01,1.71,1.64,2.98ZM19.8,18.65c-.49,0-.89-.4-.89-.89s.4-.89.89-.89.89.4.89.89-.4.89-.89.89Z"/>
  <path class="st0" d="M19.8,15.02c-1.19,0-2.19.76-2.57,1.82h-.9c-.13-.8-.47-1.55-.98-2.17l1.91-1.99c1.03.46,2.27.26,3.09-.59,1.05-1.09,1.01-2.83-.08-3.87-1.09-1.05-2.83-1.01-3.87.08-.82.86-.97,2.11-.47,3.12l-2.03,2.12c-.24-.12-.5-.23-.77-.31-.09-.03-.19-.03-.28-.05v-6c1.02-.4,1.75-1.39,1.75-2.55,0-1.51-1.23-2.74-2.74-2.74s-2.74,1.23-2.74,2.74c0,1.17.74,2.17,1.78,2.56v5.99c-.44.1-.86.24-1.25.45l-1.85-2.32c.59-.96.56-2.22-.18-3.15-.94-1.18-2.67-1.38-3.85-.43-1.18.94-1.38,2.67-.43,3.85.74.93,1.96,1.24,3.03.87l1.9,2.38c-.34.44-.61.93-.77,1.49-.03.12-.04.24-.07.35h-.66c-.38-1.06-1.38-1.82-2.57-1.82-1.51,0-2.74,1.23-2.74,2.74s1.23,2.74,2.74,2.74c1.19,0,2.19-.76,2.57-1.82h.65c.33,1.59,1.49,2.96,3.16,3.45,2.41.7,4.94-.68,5.64-3.09.02-.06.02-.12.03-.18h.97c.38,1.06,1.38,1.82,2.57,1.82,1.51,0,2.74-1.23,2.74-2.74s-1.23-2.74-2.74-2.74ZM17.73,9.57c.34-.35.9-.37,1.26-.03.35.34.37.9.03,1.26-.34.35-.9.37-1.26.03-.35-.34-.37-.9-.03-1.26ZM4.2,18.47c-.49,0-.89-.4-.89-.89s.4-.89.89-.89.89.4.89.89-.4.89-.89.89ZM11.86,3.62c.55,0,.99.44.99.99s-.44.99-.99.99-.99-.44-.99-.99.44-.99.99-.99ZM4.78,10.4c-.31-.38-.24-.95.14-1.25.38-.31.95-.24,1.25.14s.24.95-.14,1.25c-.38.31-.95.24-1.25-.14ZM14.17,18.25c-.37,1.27-1.71,2.01-2.98,1.64-1.27-.37-2.01-1.71-1.64-2.98.37-1.27,1.71-2.01,2.98-1.64,1.27.37,2.01,1.71,1.64,2.98ZM19.8,18.65c-.49,0-.89-.4-.89-.89s.4-.89.89-.89.89.4.89.89-.4.89-.89.89Z"/>
</svg>