<?xml version="1.0" encoding="UTF-8"?>
<svg id="Layer_1" xmlns="http://www.w3.org/2000/svg" xmlns:xlink="http://www.w3.org/1999/xlink" version="1.1" viewBox="0 0 24 24">
  <!-- Generator: Adobe Illustrator 30.3.0, SVG Export Plug-In . SVG Version: 2.1.3 Build 182)  -->
  <defs>
    <style>
      .st0 {
        fill: url(#linear-gradient1);
      }

      .st1 {
        fill: url(#linear-gradient);
      }

      .st2 {
        fill: none;
        stroke: url(#linear-gradient2);
        stroke-miterlimit: 10;
        stroke-width: .1px;
      }
    </style>
    <linearGradient id="linear-gradient" x1="0" y1="14" x2="24" y2="14" gradientTransform="translate(0 26) scale(1 -1)" gradientUnits="userSpaceOnUse">
      <stop offset="0" stop-color="#616161"/>
      <stop offset="1" stop-color="#0d0d0d"/>
    </linearGradient>
    <linearGradient id="linear-gradient1" x1="1.47" y1="1066.01" x2="22.54" y2="1066.01" gradientTransform="translate(0 -1054)" gradientUnits="userSpaceOnUse">
      <stop offset="0" stop-color="#fff"/>
      <stop offset="1" stop-color="#ababab"/>
    </linearGradient>
    <linearGradient id="linear-gradient2" x1="1.42" y1="1066.01" x2="22.59" y2="1066.01" gradientTransform="translate(0 -1054)" gradientUnits="userSpaceOnUse">
      <stop offset="0" stop-color="#b8b8b8"/>
      <stop offset="1" stop-color="#000"/>
    </linearGradient>
  </defs>
  <rect class="st1" width="24" height="24"/>
  <g>
    <path class="st0" d="M19.8,15.02c-1.19,0-2.19.76-2.57,1.82h-.9c-.13-.8-.47-1.55-.99-2.17l1.91-1.99c1.03.46,2.27.26,3.09-.58,1.05-1.09,1.01-2.83-.08-3.87-1.09-1.05-2.83-1.01-3.87.08-.82.86-.97,2.11-.47,3.12l-2.03,2.12c-.24-.11-.5-.23-.77-.31-.09-.03-.19-.03-.27-.05v-6c1.02-.4,1.75-1.39,1.75-2.55,0-1.51-1.23-2.74-2.74-2.74s-2.74,1.23-2.74,2.74c0,1.17.74,2.17,1.78,2.55v5.99c-.44.1-.86.24-1.25.45l-1.84-2.31c.58-.96.56-2.22-.18-3.15-.94-1.18-2.67-1.37-3.85-.44-1.18.94-1.37,2.67-.44,3.85.74.93,1.96,1.24,3.02.87l1.9,2.38c-.34.44-.61.93-.77,1.49-.03.11-.03.24-.07.36h-.66c-.38-1.07-1.37-1.82-2.57-1.82-1.51,0-2.74,1.23-2.74,2.74s1.23,2.74,2.74,2.74c1.19,0,2.19-.76,2.57-1.82h.65c.33,1.59,1.49,2.96,3.16,3.45,2.41.7,4.94-.68,5.64-3.09.02-.06.02-.11.03-.18h.97c.38,1.07,1.37,1.82,2.57,1.82,1.51,0,2.74-1.23,2.74-2.74s-1.23-2.74-2.74-2.74h0ZM17.73,9.57c.34-.36.9-.37,1.26-.03.36.34.37.9.03,1.26-.34.36-.9.37-1.26.03-.36-.34-.37-.9-.03-1.26ZM4.2,18.47c-.49,0-.89-.4-.89-.89s.4-.89.89-.89.89.4.89.89-.4.89-.89.89ZM11.86,3.62c.55,0,.99.44.99.99s-.44.99-.99.99-.99-.44-.99-.99.44-.99.99-.99ZM4.78,10.41c-.31-.38-.24-.95.14-1.25.38-.31.95-.24,1.25.14s.24.95-.14,1.25c-.38.31-.95.24-1.25-.14ZM14.16,18.25c-.37,1.27-1.71,2-2.98,1.64s-2-1.71-1.64-2.98,1.71-2,2.98-1.64,2,1.71,1.64,2.98ZM19.8,18.65c-.49,0-.89-.4-.89-.89s.4-.89.89-.89.89.4.89.89-.4.89-.89.89Z"/>
    <path class="st2" d="M19.8,15.02c-1.19,0-2.19.76-2.57,1.82h-.9c-.13-.8-.47-1.55-.99-2.17l1.91-1.99c1.03.46,2.27.26,3.09-.58,1.05-1.09,1.01-2.83-.08-3.87-1.09-1.05-2.83-1.01-3.87.08-.82.86-.97,2.11-.47,3.12l-2.03,2.12c-.24-.11-.5-.23-.77-.31-.09-.03-.19-.03-.27-.05v-6c1.02-.4,1.75-1.39,1.75-2.55,0-1.51-1.23-2.74-2.74-2.74s-2.74,1.23-2.74,2.74c0,1.17.74,2.17,1.78,2.55v5.99c-.44.1-.86.24-1.25.45l-1.84-2.31c.58-.96.56-2.22-.18-3.15-.94-1.18-2.67-1.37-3.85-.44-1.18.94-1.37,2.67-.44,3.85.74.93,1.96,1.24,3.02.87l1.9,2.38c-.34.44-.61.93-.77,1.49-.03.11-.03.24-.07.36h-.66c-.38-1.07-1.37-1.82-2.57-1.82-1.51,0-2.74,1.23-2.74,2.74s1.23,2.74,2.74,2.74c1.19,0,2.19-.76,2.57-1.82h.65c.33,1.59,1.49,2.96,3.16,3.45,2.41.7,4.94-.68,5.64-3.09.02-.06.02-.11.03-.18h.97c.38,1.07,1.37,1.82,2.57,1.82,1.51,0,2.74-1.23,2.74-2.74s-1.23-2.74-2.74-2.74h0ZM17.73,9.57c.34-.36.9-.37,1.26-.03.36.34.37.9.03,1.26-.34.36-.9.37-1.26.03-.36-.34-.37-.9-.03-1.26ZM4.2,18.47c-.49,0-.89-.4-.89-.89s.4-.89.89-.89.89.4.89.89-.4.89-.89.89ZM11.86,3.62c.55,0,.99.44.99.99s-.44.99-.99.99-.99-.44-.99-.99.44-.99.99-.99ZM4.78,10.41c-.31-.38-.24-.95.14-1.25.38-.31.95-.24,1.25.14s.24.95-.14,1.25c-.38.31-.95.24-1.25-.14ZM14.16,18.25c-.37,1.27-1.71,2-2.98,1.64s-2-1.71-1.64-2.98,1.71-2,2.98-1.64,2,1.71,1.64,2.98ZM19.8,18.65c-.49,0-.89-.4-.89-.89s.4-.89.89-.89.89.4.89.89-.4.89-.89.89Z"/>
  </g>
</svg>