<?xml version="1.0" encoding="UTF-8"?>
<svg id="Layer_1" xmlns="http://www.w3.org/2000/svg" xmlns:xlink="http://www.w3.org/1999/xlink" version="1.1" viewBox="0 0 512 512">
  <!-- Generator: Adobe Illustrator 30.3.0, SVG Export Plug-In . SVG Version: 2.1.3 Build 182)  -->
  <defs>
    <style>
      .st0 {
        fill: url(#linear-gradient2);
      }

      .st1 {
        fill: url(#linear-gradient1);
      }

      .st2 {
        fill: url(#linear-gradient3);
      }

      .st3 {
        fill: url(#linear-gradient);
      }
    </style>
    <linearGradient id="linear-gradient" x1="169.46" y1="405.23" x2="342.19" y2="405.23" gradientTransform="translate(0 512) scale(1 -1)" gradientUnits="userSpaceOnUse">
      <stop offset="0" stop-color="#fff"/>
      <stop offset="1" stop-color="#acacac"/>
    </linearGradient>
    <linearGradient id="linear-gradient1" x1="281.11" y1="336.11" x2="348.78" y2="268.45" gradientTransform="translate(0 512) scale(1 -1)" gradientUnits="userSpaceOnUse">
      <stop offset="0" stop-color="#acacac"/>
      <stop offset=".34" stop-color="#b5b5b6"/>
      <stop offset=".92" stop-color="#ced0d1"/>
      <stop offset="1" stop-color="#d3d5d6"/>
    </linearGradient>
    <linearGradient id="linear-gradient2" x1="153.94" y1="303.52" x2="241.16" y2="303.52" gradientTransform="translate(0 512) scale(1 -1)" gradientUnits="userSpaceOnUse">
      <stop offset="0" stop-color="#fff"/>
      <stop offset="1" stop-color="#acacac"/>
    </linearGradient>
    <linearGradient id="linear-gradient3" x1="39.36" y1="208.13" x2="472.64" y2="208.13" gradientTransform="translate(0 512) scale(1 -1)" gradientUnits="userSpaceOnUse">
      <stop offset="0" stop-color="#fff"/>
      <stop offset="1" stop-color="#acacac"/>
    </linearGradient>
  </defs>
  <polygon class="st3" points="169.46 105.76 256.97 157.28 342.19 108.99 255.85 56.27 169.46 105.76"/>
  <polygon class="st1" points="272.49 184.51 272.49 283.07 357.41 234.91 357.41 136.38 272.49 184.51"/>
  <polygon class="st0" points="241.16 283.98 241.16 184.34 153.94 132.98 153.94 234.87 241.16 283.98"/>
  <polygon class="st2" points="111.83 326.73 256 404.24 397.55 328.03 399.82 441.41 472.64 441.33 472.62 166.33 389.77 202.8 389.77 254.74 256.02 330.47 113.62 251.68 113.62 198.71 39.36 166.56 39.39 441.41 111.83 441.38 111.83 326.73"/>
</svg>