<?xml version="1.0" encoding="UTF-8"?>
<svg id="Layer_1" xmlns="http://www.w3.org/2000/svg" version="1.1" viewBox="0 0 512 512">
  <!-- Generator: Adobe Illustrator 30.3.0, SVG Export Plug-In . SVG Version: 2.1.3 Build 182)  -->
  <polygon points="169.46 105.76 256.97 157.28 342.19 108.99 255.85 56.27 169.46 105.76"/>
  <polygon points="272.49 184.51 272.49 283.07 357.41 234.91 357.41 136.38 272.49 184.51"/>
  <polygon points="241.16 283.98 241.16 184.34 153.94 132.98 153.94 234.87 241.16 283.98"/>
  <polygon points="111.83 326.73 256 404.24 397.55 328.03 399.82 441.41 472.64 441.33 472.62 166.33 389.77 202.8 389.77 254.74 256.02 330.47 113.62 251.68 113.62 198.71 39.36 166.56 39.39 441.41 111.83 441.38 111.83 326.73"/>
</svg>